# xmcd
#
# Track frame offsets: 
#        150
#        13290
#        27425
#        40299
#        53056
#        66875
#        78877
#        92533
#        104791
#        119399
#        133917
#        147688
#        162252
#        176869
#        188450
#        202159
#        214434
#        227431
#        241777
#        256886
#        272026
#        284172
#        299559
#        311017
#        325145
#
# Disc length: 4528 seconds
#
# Revision: 0
# Processed by: cddbd v1.5.2PL0 Copyright (c) Steve Scherf et al.
# Submitted via: ExactAudioCopy v0.99pb3
#
DISCID=8a11ae19
DTITLE=Various Artist - When The Levee Breaks - Mississippi Blues: Ra
DTITLE=re Cuts 1926-1941 [Disc 1] 
DYEAR=1900
DGENRE=Blues
TTITLE0=Garfield Akers/Cottonfield Blues Part 1
TTITLE1=Jim Thompkins/Bedside Blues
TTITLE2=Kid Bailey/Mississippi Bottom Blues
TTITLE3=Sam Butler/Poor Boy Blues
TTITLE4=William Harris/ I'm Leavin' Town
TTITLE5=Mississippi Jook Band/Hittin' The Bottle Stomp
TTITLE6=Geeshie Wiley/Last Kind Words Blues
TTITLE7=Blind Willie Reynolds/Third Street Woman Blues
TTITLE8=Freddie Spruell/Muddy Water Blues
TTITLE9=Joe Calicott/Fare Thee Well Blues
TTITLE10=Arthur Petties/That Won't Do
TTITLE11=Willie '61' Blackwell/Four O'Clock Flower Blues
TTITLE12=Joe McCoy/Evil Devil Woman Blues
TTITLE13=Sam Collins/The Jail House Blues
TTITLE14=Robert Lockwood/Black Spider Blues
TTITLE15=Robert Johnson/Traveling Riverside Blues (Take 1)
TTITLE16=Charlie McCoy/Baltimore Blues
TTITLE17=Mattie Delaney/Down The Big Road Blues
TTITLE18=Mississippi Bracey/You Scolded Me And Drove Me
TTITLE19=Freddie Spruell/Milk Cow Blues
TTITLE20=Mose Andrews/Ten Pound Hammer
TTITLE21=Willie '61' Blackwell/Noiseless Motor Blues 
TTITLE22=Walter 'Buddy Boy' Hawkins/Jailhouse Fire Blues
TTITLE23=Freddie Spruell/4A Highway
TTITLE24=King Solomon Hill/Times Has Done Got Hard
EXTD=
EXTT0=
EXTT1=
EXTT2=
EXTT3=
EXTT4=
EXTT5=
EXTT6=
EXTT7=
EXTT8=
EXTT9=
EXTT10=
EXTT11=
EXTT12=
EXTT13=
EXTT14=
EXTT15=
EXTT16=
EXTT17=
EXTT18=
EXTT19=
EXTT20=
EXTT21=
EXTT22=
EXTT23=
EXTT24=
PLAYORDER=
